<svg width="579" height="205" viewBox="0 0 579 205" fill="none" xmlns="http://www.w3.org/2000/svg">
<path d="M231.874 162.25C223.674 162.25 216.699 160.425 210.949 156.775C205.249 153.075 200.899 148 197.899 141.55C194.899 135.1 193.349 127.75 193.249 119.5C193.349 111.05 194.924 103.625 197.974 97.225C201.074 90.775 205.499 85.75 211.249 82.15C216.999 78.55 223.924 76.75 232.024 76.75C240.574 76.75 247.924 78.85 254.074 83.05C260.274 87.25 264.424 93 266.524 100.3L253.324 104.275C251.624 99.575 248.849 95.925 244.999 93.325C241.199 90.725 236.824 89.425 231.874 89.425C226.324 89.425 221.749 90.725 218.149 93.325C214.549 95.875 211.874 99.425 210.124 103.975C208.374 108.475 207.474 113.65 207.424 119.5C207.524 128.5 209.599 135.775 213.649 141.325C217.749 146.825 223.824 149.575 231.874 149.575C237.174 149.575 241.574 148.375 245.074 145.975C248.574 143.525 251.224 140 253.024 135.4L266.524 138.925C263.724 146.475 259.349 152.25 253.399 156.25C247.449 160.25 240.274 162.25 231.874 162.25ZM281.133 160V49.75H294.483V160H281.133ZM352.087 162.25C344.137 162.25 337.187 160.5 331.237 157C325.337 153.45 320.737 148.525 317.437 142.225C314.137 135.875 312.487 128.475 312.487 120.025C312.487 111.175 314.112 103.525 317.362 97.075C320.612 90.575 325.137 85.575 330.937 82.075C336.787 78.525 343.637 76.75 351.487 76.75C359.637 76.75 366.562 78.625 372.262 82.375C378.012 86.125 382.312 91.475 385.162 98.425C388.062 105.375 389.312 113.65 388.912 123.25H375.412V118.45C375.262 108.5 373.237 101.075 369.337 96.175C365.437 91.225 359.637 88.75 351.937 88.75C343.687 88.75 337.412 91.4 333.112 96.7C328.812 102 326.662 109.6 326.662 119.5C326.662 129.05 328.812 136.45 333.112 141.7C337.412 146.95 343.537 149.575 351.487 149.575C356.837 149.575 361.487 148.35 365.437 145.9C369.387 143.45 372.487 139.925 374.737 135.325L387.562 139.75C384.412 146.9 379.662 152.45 373.312 156.4C367.012 160.3 359.937 162.25 352.087 162.25ZM322.162 123.25V112.525H382.012V123.25H322.162ZM405.61 160V79H417.535V98.575L415.585 96.025C416.535 93.525 417.76 91.225 419.26 89.125C420.81 87.025 422.535 85.3 424.435 83.95C426.535 82.25 428.91 80.95 431.56 80.05C434.21 79.15 436.91 78.625 439.66 78.475C442.41 78.275 444.985 78.45 447.385 79V91.525C444.585 90.775 441.51 90.575 438.16 90.925C434.81 91.275 431.71 92.5 428.86 94.6C426.26 96.45 424.235 98.7 422.785 101.35C421.385 104 420.41 106.875 419.86 109.975C419.31 113.025 419.035 116.15 419.035 119.35V160H405.61ZM463.067 64.675V50.875H476.417V64.675H463.067ZM463.067 160V79H476.417V160H463.067ZM533.42 162.25C525.37 162.25 518.42 160.425 512.57 156.775C506.77 153.125 502.295 148.075 499.145 141.625C495.995 135.175 494.42 127.775 494.42 119.425C494.42 110.925 496.02 103.475 499.22 97.075C502.42 90.675 506.945 85.7 512.795 82.15C518.645 78.55 525.52 76.75 533.42 76.75C541.52 76.75 548.495 78.575 554.345 82.225C560.195 85.825 564.67 90.85 567.77 97.3C570.92 103.7 572.495 111.075 572.495 119.425C572.495 127.875 570.92 135.325 567.77 141.775C564.62 148.175 560.12 153.2 554.27 156.85C548.42 160.45 541.47 162.25 533.42 162.25ZM533.42 149.575C541.82 149.575 548.07 146.775 552.17 141.175C556.27 135.575 558.32 128.325 558.32 119.425C558.32 110.275 556.245 103 552.095 97.6C547.945 92.15 541.72 89.425 533.42 89.425C527.77 89.425 523.12 90.7 519.47 93.25C515.82 95.8 513.095 99.325 511.295 103.825C509.495 108.325 508.595 113.525 508.595 119.425C508.595 128.525 510.695 135.825 514.895 141.325C519.095 146.825 525.27 149.575 533.42 149.575Z" fill="black"/>
<g filter="url(#filter0_d_322_33)">
<rect x="4.21826" y="38" width="141.281" height="141.281" rx="20" fill="#0A1B33"/>
<rect x="4.4819" y="38.2636" width="140.753" height="140.753" rx="19.7364" stroke="black" stroke-width="0.52728"/>
</g>
<path d="M68.117 124.023C69.6363 120.189 73.3427 117.671 77.467 117.671H78.766C82.8904 117.671 86.5967 120.189 88.116 124.023L98.6705 150.66C101.286 157.262 96.4217 164.422 89.3205 164.422H66.9125C59.8113 164.422 54.9466 157.262 57.5625 150.66L68.117 124.023Z" fill="#BFDBF7"/>
<path d="M83.1263 54.0621C89.5511 54.032 92.6225 62.5859 88.3987 67.4272C84.1664 72.2781 81.2057 77.3143 83.3787 80.4121C84.793 82.4285 87.2188 83.6401 90.0118 84.3337C96.0482 85.8327 100.573 93.5295 96.4056 98.147C90.471 104.723 83.8696 110.978 80.1205 110.978C65.4576 110.978 54.7441 92.3736 54.7441 77.2615C54.7441 62.1494 57.4162 54.1025 72.0791 54.1025C73.957 54.1025 78.2827 54.0848 83.1263 54.0621Z" fill="#BFDBF7"/>
<defs>
<filter id="filter0_d_322_33" x="2.09808e-05" y="38" width="149.717" height="149.718" filterUnits="userSpaceOnUse" color-interpolation-filters="sRGB">
<feFlood flood-opacity="0" result="BackgroundImageFix"/>
<feColorMatrix in="SourceAlpha" type="matrix" values="0 0 0 0 0 0 0 0 0 0 0 0 0 0 0 0 0 0 127 0" result="hardAlpha"/>
<feOffset dy="4.21824"/>
<feGaussianBlur stdDeviation="2.10912"/>
<feComposite in2="hardAlpha" operator="out"/>
<feColorMatrix type="matrix" values="0 0 0 0 0 0 0 0 0 0 0 0 0 0 0 0 0 0 0.25 0"/>
<feBlend mode="normal" in2="BackgroundImageFix" result="effect1_dropShadow_322_33"/>
<feBlend mode="normal" in="SourceGraphic" in2="effect1_dropShadow_322_33" result="shape"/>
</filter>
</defs>
</svg>
