<svg width="118" height="233" viewBox="0 0 118 233" fill="none" xmlns="http://www.w3.org/2000/svg">
<path d="M33.692 147.459C36.8898 139.388 44.6907 134.088 53.3714 134.088H56.1054C64.7861 134.088 72.587 139.388 75.7848 147.459L97.9993 203.522C103.505 217.417 93.2662 232.487 78.3199 232.487H31.1569C16.2106 232.487 5.9716 217.417 11.4775 203.522L33.692 147.459Z" fill="white" fill-opacity="0.8"/>
<path d="M65.2831 0.206819C78.8057 0.143394 85.2703 18.1472 76.3801 28.3369C67.4723 38.5468 61.2408 49.1467 65.8143 55.667C68.7911 59.9108 73.8969 62.461 79.7753 63.9208C92.4805 67.0758 102.003 83.2757 93.2327 92.9944C80.7419 106.836 66.8475 120.001 58.9567 120.001C28.095 120.001 5.5459 80.8427 5.5459 49.0356C5.5459 17.2285 11.1699 0.291812 42.0317 0.291812C45.984 0.291812 55.0885 0.254634 65.2831 0.206819Z" fill="white" fill-opacity="0.8"/>
</svg>
