<svg width="45" height="111" viewBox="0 0 45 111" fill="none" xmlns="http://www.w3.org/2000/svg">
<path d="M13.3729 69.9614C14.8922 66.1271 18.5985 63.609 22.7229 63.609H24.0219C28.1462 63.609 31.8525 66.1271 33.3719 69.9614L43.9264 96.5979C46.5423 103.2 41.6776 110.36 34.5763 110.36H12.1684C5.06715 110.36 0.202445 103.2 2.81838 96.5979L13.3729 69.9614Z" fill="#00A994"/>
<path d="M28.3821 7.94066e-05C34.807 -0.0300549 37.8784 8.52385 33.6545 13.3652C29.4223 18.216 26.4616 23.2523 28.6345 26.3501C30.0489 28.3665 32.4747 29.5781 35.2676 30.2717C41.3041 31.7707 45.8285 39.4675 41.6615 44.085C35.7269 50.6612 29.1254 56.9165 25.3764 56.9165C10.7135 56.9165 0 38.3116 0 23.1995C0 8.08738 2.67206 0.040461 17.335 0.040461C19.2128 0.040461 23.5385 0.0227973 28.3821 7.94066e-05Z" fill="#00A994"/>
</svg>
