<svg width="150" height="150" viewBox="0 0 150 150" fill="none" xmlns="http://www.w3.org/2000/svg">
<g filter="url(#filter0_d_322_28)">
<rect x="4.21826" width="141.281" height="141.281" rx="20" fill="#DFEAEC"/>
<rect x="4.4819" y="0.26364" width="140.753" height="140.753" rx="19.7364" stroke="black" stroke-width="0.52728"/>
</g>
<path d="M68.117 86.0229C69.6363 82.1886 73.3427 79.6705 77.467 79.6705H78.766C82.8904 79.6705 86.5967 82.1886 88.116 86.0229L98.6705 112.659C101.286 119.261 96.4217 126.422 89.3205 126.422H66.9125C59.8113 126.422 54.9466 119.261 57.5625 112.659L68.117 86.0229Z" fill="#005046"/>
<path d="M83.1263 16.0616C89.5511 16.0315 92.6225 24.5854 88.3987 29.4267C84.1664 34.2776 81.2057 39.3138 83.3787 42.4116C84.793 44.428 87.2188 45.6396 90.0118 46.3332C96.0482 47.8322 100.573 55.529 96.4056 60.1465C90.471 66.7227 83.8696 72.978 80.1205 72.978C65.4576 72.978 54.7441 54.3731 54.7441 39.261C54.7441 24.1489 57.4162 16.102 72.0791 16.102C73.957 16.102 78.2827 16.0843 83.1263 16.0616Z" fill="#005046"/>
<defs>
<filter id="filter0_d_322_28" x="2.09808e-05" y="0" width="149.717" height="149.718" filterUnits="userSpaceOnUse" color-interpolation-filters="sRGB">
<feFlood flood-opacity="0" result="BackgroundImageFix"/>
<feColorMatrix in="SourceAlpha" type="matrix" values="0 0 0 0 0 0 0 0 0 0 0 0 0 0 0 0 0 0 127 0" result="hardAlpha"/>
<feOffset dy="4.21824"/>
<feGaussianBlur stdDeviation="2.10912"/>
<feComposite in2="hardAlpha" operator="out"/>
<feColorMatrix type="matrix" values="0 0 0 0 0 0 0 0 0 0 0 0 0 0 0 0 0 0 0.25 0"/>
<feBlend mode="normal" in2="BackgroundImageFix" result="effect1_dropShadow_322_28"/>
<feBlend mode="normal" in="SourceGraphic" in2="effect1_dropShadow_322_28" result="shape"/>
</filter>
</defs>
</svg>
